<?xml version="1.0" encoding="utf-8"?><svg xmlns="http://www.w3.org/2000/svg" xmlns:xlink="http://www.w3.org/1999/xlink"><symbol viewBox="0 0 12 12" id="ask" xmlns="http://www.w3.org/2000/svg">
<path d="M9.15818 2.58646C8.31173 1.88585 7.19015 1.5 6 1.5C4.80985 1.5 3.68827 1.88585 2.84182 2.58649C1.97654 3.30274 1.5 4.26085 1.5 5.28435C1.5 6.30787 1.97654 7.26603 2.84182 7.98223C3.68827 8.6829 4.80985 9.06877 6 9.06877C6.12117 9.06877 6.24326 9.06464 6.36476 9.05642L7.13123 10.3501C7.18507 10.4409 7.28045 10.4974 7.38419 10.5C7.38655 10.5 7.38884 10.5 7.39125 10.5C7.49232 10.5 7.58709 10.4485 7.64365 10.3623L9.26643 7.88929C10.0625 7.18392 10.5 6.26166 10.5 5.2844C10.5 4.26083 10.0235 3.30271 9.15818 2.58646ZM8.81964 7.46106L7.40431 9.61058L6.78713 8.56889C6.73169 8.47527 6.63271 8.41905 6.52718 8.41905C6.51699 8.41905 6.50675 8.41957 6.49648 8.42059C6.33224 8.43762 6.16519 8.44621 5.99995 8.44621C3.85396 8.44621 2.10809 7.02775 2.10809 5.28427C2.10809 3.54082 3.85396 2.12238 5.99995 2.12238C8.14595 2.12238 9.89181 3.54082 9.89181 5.28427C9.89186 6.09693 9.51107 6.86995 8.81964 7.46106Z" stroke-width="1.2"/>
</symbol><symbol viewBox="0 0 20 20" id="clock" xmlns="http://www.w3.org/2000/svg">
<path d="M9.98434 4C10.5761 4 10.9844 4.47971 10.9844 5.07142V9L13.913 8.99547C14.5047 8.99547 14.9844 9.40829 14.9844 10C14.9844 10.5917 14.5047 10.9955 13.913 10.9955L9.98438 11C9.39266 11 9 10.5962 9 10.0045V5.07142C9 4.47971 9.39263 4 9.98434 4Z"/>
<path d="M10 0C4.48598 0 0 4.48598 0 10C0 15.514 4.48598 20 9.99996 20C15.5139 20 19.9999 15.514 19.9999 10C20 4.48598 15.514 0 10 0ZM10 18C5.66762 18 2 14.3324 2 10C1.99993 5.66752 5.66755 2 10 2C14.3325 2 18 5.67205 18 10.0045C18 14.3369 14.3324 18 10 18Z"/>
</symbol><symbol viewBox="0 0 8 8" id="e" xmlns="http://www.w3.org/2000/svg">
<path d="M0.536605 7.22488C0.610725 7.39148 0.78463 7.5 0.977278 7.5H7.02256C7.28619 7.5 7.49987 7.30002 7.49987 7.05309V5.71278C7.49987 5.46597 7.28626 5.26593 7.02256 5.26593C6.75886 5.26593 6.54519 5.46591 6.54519 5.71278V6.6063H2.12415L4.31021 4.54617C4.48523 4.38116 4.49594 4.11796 4.33457 3.94116L2.01215 1.39364H6.54532V1.6915C6.54532 1.93831 6.75893 2.13829 7.02269 2.13829C7.28646 2.13829 7.5 1.93831 7.5 1.6915V0.94685C7.5 0.70004 7.28639 0.5 7.02269 0.5H0.977278C0.791096 0.5 0.621892 0.601426 0.543919 0.759771C0.465946 0.918115 0.493504 1.1044 0.614252 1.23694L3.32333 4.20845L0.638741 6.73829C0.502842 6.86631 0.462615 7.05822 0.536605 7.22488Z"/>
</symbol><symbol viewBox="0 0 6 11" id="fb" xmlns="http://www.w3.org/2000/svg">
<path d="M6 0.184874C5.28814 0.092437 4.77966 0 4.0678 0C2.0339 0 1.22034 0.831933 1.22034 2.40336V3.5126H0V5.36134H1.32203V11H3.76271V5.45378H5.59322L5.79661 3.60504H3.76271V2.68067C3.76271 2.21849 3.86441 1.84874 4.57627 1.84874C4.88136 1.84874 5.28814 1.94118 5.69492 1.94118L6 0.184874Z"/>
</symbol><symbol viewBox="0 0 20 22" id="human" xmlns="http://www.w3.org/2000/svg">
<path d="M18.7428 15.7263C17.5177 14.629 15.9168 14.009 14.2186 13.9707V12.1415C15.0464 11.2258 15.4987 10.0776 15.4987 8.87338V6.09537C15.4987 3.28577 13.032 1 10 1C6.96799 1 4.50127 3.28577 4.50127 6.09537V8.87338C4.50127 10.0776 4.95361 11.2258 5.78139 12.1415V13.9707C4.08318 14.009 2.48229 14.629 1.25717 15.7263C0.95879 15.9934 0.914659 16.4222 1.1531 16.737C3.17587 19.4064 6.48321 21 10 21C13.517 21 16.8241 19.4064 18.8469 16.7368C19.0853 16.4222 19.0412 15.9934 18.7428 15.7263ZM6.18746 6.09537C6.18746 4.14728 7.89786 2.5625 10 2.5625C12.1023 2.5625 13.8125 4.14728 13.8125 6.09537V8.87338C13.8125 9.78448 13.4394 10.6495 12.7618 11.3088C12.0346 12.0165 11.0539 12.4062 10 12.4062C8.94613 12.4062 7.96537 12.0165 7.2382 11.309C6.56076 10.6495 6.18746 9.78448 6.18746 8.87338V6.09537ZM10 19.4375C7.29007 19.4375 4.72753 18.3161 3.00264 16.406C3.8571 15.8381 4.88017 15.5312 5.94952 15.5312H6.62449C7.09017 15.5312 7.46759 15.1815 7.46759 14.75V13.4002C8.23889 13.7721 9.10108 13.9688 10 13.9688C10.8991 13.9688 11.7611 13.7721 12.5324 13.4002V14.75C12.5324 15.1815 12.9098 15.5312 13.3755 15.5312H14.0506C15.1198 15.5312 16.1429 15.8381 16.9974 16.406C15.2726 18.3161 12.7099 19.4375 10 19.4375Z" stroke-width="0.2"/>
</symbol><symbol viewBox="0 0 16 16" id="insta" xmlns="http://www.w3.org/2000/svg">
<path d="M7.99683 1.44156C10.1333 1.44156 10.3841 1.45108 11.2286 1.48918C12.0095 1.52411 12.4317 1.6543 12.7143 1.76543C13.0889 1.91149 13.3556 2.08295 13.6349 2.36237C13.9143 2.64179 14.0889 2.90851 14.2317 3.28319C14.3397 3.56579 14.473 3.98809 14.5079 4.7692C14.546 5.61381 14.5556 5.86466 14.5556 8.00159C14.5556 10.1385 14.546 10.3894 14.5079 11.234C14.473 12.0151 14.3429 12.4374 14.2317 12.72C14.0857 13.0947 13.9143 13.3614 13.6349 13.6408C13.3556 13.9202 13.0889 14.0949 12.7143 14.2377C12.4317 14.3457 12.0095 14.4791 11.2286 14.514C10.3841 14.5521 10.1333 14.5616 7.99683 14.5616C5.86032 14.5616 5.60952 14.5521 4.76508 14.514C3.98413 14.4791 3.5619 14.3489 3.27937 14.2377C2.90476 14.0917 2.6381 13.9202 2.35873 13.6408C2.07937 13.3614 1.90476 13.0947 1.7619 12.72C1.65397 12.4374 1.52064 12.0151 1.48571 11.234C1.44762 10.3894 1.4381 10.1385 1.4381 8.00159C1.4381 5.86466 1.44762 5.61381 1.48571 4.7692C1.52064 3.98809 1.65079 3.56579 1.7619 3.28319C1.90794 2.90851 2.07937 2.64179 2.35873 2.36237C2.6381 2.08295 2.90476 1.90832 3.27937 1.76543C3.5619 1.65747 3.98413 1.52411 4.76508 1.48918C5.60952 1.44791 5.86032 1.44156 7.99683 1.44156ZM7.99683 0C5.8254 0 5.55238 0.0095257 4.69841 0.0476285C3.84762 0.0857313 3.26667 0.222266 2.75873 0.419131C2.23175 0.622346 1.7873 0.898591 1.34286 1.34312C0.898413 1.78766 0.625397 2.23536 0.419048 2.75928C0.222222 3.26732 0.0857143 3.84838 0.0476191 4.70252C0.00952381 5.55348 0 5.82655 0 7.99841C0 10.1703 0.00952381 10.4433 0.0476191 11.2975C0.0857143 12.1484 0.222222 12.7295 0.419048 13.2407C0.622222 13.7678 0.898413 14.2123 1.34286 14.6569C1.7873 15.1014 2.23492 15.3745 2.75873 15.5809C3.26667 15.7777 3.84762 15.9143 4.70159 15.9524C5.55556 15.9905 5.8254 16 8 16C10.1746 16 10.4444 15.9905 11.2984 15.9524C12.1492 15.9143 12.7302 15.7777 13.2413 15.5809C13.7683 15.3777 14.2127 15.1014 14.6571 14.6569C15.1016 14.2123 15.3746 13.7646 15.581 13.2407C15.7778 12.7327 15.9143 12.1516 15.9524 11.2975C15.9905 10.4433 16 10.1734 16 7.99841C16 5.82338 15.9905 5.55348 15.9524 4.69935C15.9143 3.84838 15.7778 3.26732 15.581 2.7561C15.3778 2.22901 15.1016 1.78448 14.6571 1.33995C14.2127 0.895416 13.7651 0.622346 13.2413 0.415956C12.7333 0.219091 12.1524 0.0825561 11.2984 0.0444533C10.4413 0.00952571 10.1683 0 7.99683 0Z"/>
<path d="M7.99683 3.88965C5.73017 3.88965 3.88892 5.72828 3.88892 7.99878C3.88892 10.2693 5.73017 12.1079 7.99683 12.1079C10.2635 12.1079 12.1047 10.2661 12.1047 7.99878C12.1047 5.73145 10.2635 3.88965 7.99683 3.88965ZM7.99683 10.6662C6.52382 10.6662 5.33018 9.47222 5.33018 7.99878C5.33018 6.52533 6.52382 5.33134 7.99683 5.33134C9.46983 5.33134 10.6635 6.52533 10.6635 7.99878C10.6635 9.47222 9.46983 10.6662 7.99683 10.6662Z"/>
<path d="M12.2666 4.68652C12.7961 4.68652 13.2253 4.25717 13.2253 3.72754C13.2253 3.19791 12.7961 2.76855 12.2666 2.76855C11.7371 2.76855 11.3079 3.19791 11.3079 3.72754C11.3079 4.25717 11.7371 4.68652 12.2666 4.68652Z"/>
</symbol><symbol viewBox="0 0 20 20" id="ok" xmlns="http://www.w3.org/2000/svg">
<path d="M17.9008 7.18046L14.6713 7.11275C14.7405 6.7065 14.7866 6.23253 14.8097 5.69086C14.902 3.72731 14.4637 2.23771 13.5179 1.24465C12.4337 0.116167 10.7958 -0.244947 8.65052 0.161306C8.16609 0.251585 7.84314 0.702977 7.91234 1.17694C8.65052 5.91656 6.85121 6.9999 6.48212 7.15789C6.0669 7.20303 5.67474 7.36101 5.35179 7.60928C5.07497 7.45129 4.72895 7.36101 4.35986 7.36101H2.09919C0.94579 7.36101 0 8.28637 0 9.41485V17.9462C0 19.0746 0.94579 20 2.09919 20H4.35986C4.79815 20 5.21338 19.8646 5.53633 19.6389C5.85928 19.8646 6.25144 20 6.68973 20H16.7243C17.8547 20 18.8005 19.0972 18.8235 17.9913L20 9.36971C20 9.32457 20 9.27943 20 9.25686C19.9769 8.10581 19.0542 7.18046 17.9008 7.18046ZM4.61361 17.9462C4.61361 18.0816 4.49827 18.1944 4.35986 18.1944H2.09919C1.96078 18.1944 1.84544 18.0816 1.84544 17.9462V9.41485C1.84544 9.27943 1.96078 9.16658 2.09919 9.16658H4.35986C4.49827 9.16658 4.61361 9.27943 4.61361 9.41485V17.9462ZM16.9781 17.7882C16.9781 17.8333 16.9781 17.8785 16.9781 17.901C16.9781 18.059 16.8627 18.1719 16.7243 18.1719H6.66667C6.55133 18.1719 6.45905 18.0139 6.45905 17.8559V9.23429C6.45905 9.09887 6.55133 8.98603 6.68973 8.98603C6.75894 8.98603 6.85121 8.98603 6.92042 8.96346C7.08189 8.91832 10.519 7.99296 9.87313 1.83146C10.9112 1.76375 11.6955 1.96688 12.1799 2.48598C13.4025 3.77245 12.9412 6.72906 12.6644 7.7447C12.5952 8.01553 12.6413 8.30894 12.8258 8.51206C12.9873 8.73776 13.2641 8.87318 13.5409 8.87318L17.8777 8.96346C17.9931 8.96346 18.1084 9.0763 18.1315 9.18915L16.9781 17.7882Z"/>
</symbol><symbol viewBox="0 0 8 10" id="play" xmlns="http://www.w3.org/2000/svg">
<path d="M7.5 4.03033C8.16667 4.4613 8.16667 5.5387 7.5 5.96966L1.5 9.84832C0.833333 10.2793 5.59586e-08 9.74058 -4.90154e-08 8.87866L-3.88098e-07 1.12134C-4.93072e-07 0.259418 0.833333 -0.279284 1.5 0.151678L7.5 4.03033Z"/>
</symbol><symbol viewBox="0 0 8 10" id="point" xmlns="http://www.w3.org/2000/svg">
<path d="M6 1C6 0.447716 6.44772 0 7 0C7.55228 0 8 0.447715 8 1V9C8 9.55228 7.55228 10 7 10C6.44772 10 6 9.55228 6 9V1Z"/>
<path d="M3 7C3 6.44772 3.44772 6 4 6C4.55228 6 5 6.44772 5 7V9C5 9.55228 4.55228 10 4 10C3.44772 10 3 9.55228 3 9V7Z"/>
<path d="M0 3C0 2.44772 0.447715 2 1 2C1.55228 2 2 2.44772 2 3V9C2 9.55228 1.55228 10 1 10C0.447715 10 0 9.55228 0 9V3Z"/>
</symbol><symbol viewBox="0 0 17 17" id="search" xmlns="http://www.w3.org/2000/svg">
<path d="M16.1599 15.2564L13.0315 12.1703C14.198 10.88 14.9227 9.17128 14.9227 7.30564C14.9227 3.27795 11.5999 0 7.51702 0C3.43417 0 0.111328 3.27795 0.111328 7.30564C0.111328 11.3333 3.43417 14.6113 7.51702 14.6113C8.96634 14.6113 10.3096 14.1928 11.4408 13.4954L14.6929 16.7036C14.8874 16.8954 15.1525 17 15.4176 17C15.6827 17 15.9478 16.8954 16.1423 16.7036C16.5665 16.3026 16.5665 15.6574 16.1599 15.2564ZM2.17927 7.30564C2.17927 4.41128 4.56535 2.04 7.51702 2.04C10.4687 2.04 12.8371 4.41128 12.8371 7.30564C12.8371 10.2 10.451 12.5713 7.51702 12.5713C4.58302 12.5713 2.17927 10.2174 2.17927 7.30564Z"/>
</symbol><symbol viewBox="0 0 10 9" id="smile" xmlns="http://www.w3.org/2000/svg">
<path d="M9.00003 1.5C9.00003 2.32843 8.32845 3 7.50003 3C6.6716 3 6.00003 2.32843 6.00003 1.5C6.00003 0.671573 6.6716 0 7.50003 0C8.32845 0 9.00003 0.671573 9.00003 1.5Z"/>
<path d="M0.36432 5.22807C0.790644 4.87698 1.42087 4.93797 1.77196 5.36429C2.62858 6.40447 3.77631 7 5.00003 7C6.22374 7 7.37148 6.40447 8.2281 5.36429C8.57919 4.93797 9.20941 4.87698 9.63574 5.22807C10.0621 5.57916 10.123 6.20938 9.77196 6.63571C8.59575 8.06395 6.91022 9 5.00003 9C3.08984 9 1.4043 8.06395 0.228099 6.63571C-0.122993 6.20938 -0.062005 5.57916 0.36432 5.22807Z"/>
<path d="M2.50003 3C3.32846 3 4.00003 2.32843 4.00003 1.5C4.00003 0.671573 3.32846 0 2.50003 0C1.6716 0 1.00003 0.671573 1.00003 1.5C1.00003 2.32843 1.6716 3 2.50003 3Z"/>
</symbol><symbol viewBox="0 0 48 48" id="ticket" xmlns="http://www.w3.org/2000/svg">
<path d="M45.626 21.2292L42.72 20.5735L41.4502 15.8875L40.5321 15.8843C39.0191 15.879 37.6864 14.8557 37.2903 13.3948C36.8942 11.934 37.5277 10.3757 38.8303 9.60555L39.6209 9.13785L37.7525 2.24838C37.3135 0.62758 35.6392 -0.332718 34.0209 0.106382L2.24484 8.74589C1.46266 8.95829 0.809531 9.46519 0.404959 10.1723C0.000387595 10.8794 -0.105383 11.7004 0.107216 12.4833L1.97459 19.3738L2.89268 19.377C4.4052 19.3823 5.73843 20.4056 6.13454 21.8664C6.53065 23.3273 5.89709 24.8856 4.59452 25.6562L3.80442 26.124L5.6718 33.0139C5.73685 33.2539 5.83786 33.4763 5.95579 33.6888L5.2027 37.0379C4.83462 38.6762 5.86536 40.3091 7.50109 40.6783L39.6225 47.9253C39.8462 47.9756 40.0699 48 40.2904 48C41.6808 48 42.9389 47.0371 43.2573 45.6234L44.8238 38.6581L44.0136 38.2254C42.6793 37.5125 41.9785 35.9833 42.3107 34.5066C42.6428 33.0304 43.9305 31.9493 45.4415 31.8783L46.3585 31.8349L47.925 24.8702C48.1032 24.0784 47.9614 23.2627 47.5267 22.5741C47.0915 21.885 46.4167 21.4072 45.626 21.2292ZM3.83932 17.0443L2.43152 11.8514C2.37282 11.6337 2.4458 11.4578 2.49498 11.372C2.54417 11.2862 2.6584 11.1337 2.87576 11.0749L9.09135 9.38521L9.82381 12.0887C9.94016 12.5188 10.3294 12.8011 10.7535 12.8011C10.8371 12.8011 10.9217 12.7899 11.0063 12.7672C11.5198 12.6273 11.8234 12.0971 11.6838 11.5828L10.9513 8.87937L34.6524 2.43483C34.9839 2.3469 35.3377 2.54871 35.4277 2.87975L36.8355 8.07267C35.1315 9.50279 34.3694 11.8291 34.9649 14.0273C35.5609 16.2254 37.3929 17.8462 39.585 18.217L40.9928 23.4099C41.0821 23.7409 40.8791 24.0964 40.5485 24.1864L16.847 30.6309L16.3176 28.677C16.1785 28.1627 15.6502 27.8581 15.1351 27.9985C14.6216 28.1383 14.318 28.6685 14.4576 29.1828L14.987 31.1363L8.7714 32.8264C8.55563 32.8852 8.37899 32.8121 8.29332 32.7629C8.20764 32.7141 8.05533 32.5992 7.99663 32.3815L6.58882 27.1886C8.29279 25.7585 9.05486 23.4321 8.45937 21.2335C7.86283 19.0359 6.03089 17.4151 3.83932 17.0443ZM32.7284 30.3709L34.2996 32.6712L31.923 34.1215L30.2243 36.3292L28.1126 34.5135L25.4911 33.577L26.5625 31.0049L26.5773 30.4853L32.3815 28.9074L32.7284 30.3709ZM45.5742 24.34L44.3938 29.5896C42.2202 30.0557 40.4602 31.7549 39.9604 33.9769C39.4612 36.1989 40.3238 38.4902 42.0875 39.8441L40.9071 45.0937C40.8315 45.4279 40.4861 45.6472 40.1519 45.572L16.1933 40.1661L16.6375 38.191C16.7544 37.6714 16.4281 37.1544 15.9093 37.0373C15.3905 36.9213 14.8749 37.2471 14.7575 37.7667L14.3132 39.7413L8.03048 38.3239C7.69624 38.2487 7.47783 37.9023 7.55292 37.5676L8.08336 35.21C8.2563 35.2407 8.43029 35.2619 8.60587 35.2619C8.87188 35.2619 9.14001 35.2264 9.40338 35.1549L15.7321 33.434L15.6047 34.0002C15.4878 34.5203 15.8141 35.0368 16.3329 35.1538C16.4043 35.1697 16.4757 35.1777 16.5455 35.1777C16.9861 35.1777 17.3838 34.8731 17.4848 34.4245L17.8359 32.8619L24.4503 31.0637L22.9309 34.7121L27.1289 36.2116L30.5109 39.119L33.2319 35.5834L37.038 33.2602L34.5217 29.5753L34.243 28.4005L41.1794 26.5149C42.6576 26.1128 43.582 24.679 43.3975 23.1991L45.0977 23.5826C45.3172 23.6318 45.4383 23.7796 45.4906 23.8628C45.5425 23.947 45.6239 24.1202 45.5742 24.34Z"/>
<path d="M13.3232 21.314C12.8097 21.4538 12.5062 21.984 12.6458 22.4983L13.4475 25.4566C13.5639 25.8867 13.9531 26.169 14.3772 26.169C14.4608 26.169 14.5454 26.1578 14.6305 26.1351C15.1441 25.9952 15.4476 25.465 15.308 24.9507L14.5063 21.9925C14.3667 21.4782 13.8399 21.1757 13.3232 21.314Z"/>
<path d="M11.6357 18.7726C11.752 19.2027 12.1412 19.485 12.5654 19.485C12.6489 19.485 12.7336 19.4739 12.8182 19.4511C13.3317 19.3113 13.6352 18.7811 13.4956 18.2668L12.6939 15.3085C12.5548 14.7942 12.0275 14.4907 11.5114 14.63C10.9979 14.7699 10.6943 15.3001 10.8339 15.8144L11.6357 18.7726Z"/>
<path d="M20.2559 22.6546L24.6666 22.0137L29.0132 22.9994L29.7679 18.5999L32.0478 14.764L28.1031 12.6856L25.1648 9.32906L21.9721 12.4441L17.8766 14.2052L19.8482 18.209L20.2559 22.6546ZM23.0615 14.0771L25.0548 12.1321L26.8893 14.228L29.3522 15.5252L27.9291 17.9204L27.4579 20.6673L24.7438 20.0518L21.9895 20.4522L21.7351 17.6767L20.504 15.1767L23.0615 14.0771Z"/>
</symbol><symbol viewBox="0 0 18 20" id="timer" xmlns="http://www.w3.org/2000/svg">
<path d="M9 20C4.05 20 0 16.2105 0 11.5789C0 6.94737 4.05 3.15789 9 3.15789C13.95 3.15789 18 6.94737 18 11.5789C18 16.2105 13.95 20 9 20ZM9 5.26316C5.2875 5.26316 2.25 8.10526 2.25 11.5789C2.25 15.0526 5.2875 17.8947 9 17.8947C12.7125 17.8947 15.75 15.0526 15.75 11.5789C15.75 8.10526 12.7125 5.26316 9 5.26316Z"/>
<path d="M11.25 2.10526H6.75C6.075 2.10526 5.625 1.68421 5.625 1.05263C5.625 0.421053 6.075 0 6.75 0H11.25C11.925 0 12.375 0.421053 12.375 1.05263C12.375 1.68421 11.925 2.10526 11.25 2.10526Z"/>
<path d="M9 12.6316C8.325 12.6316 7.875 12.2105 7.875 11.5789V8.42105C7.875 7.78947 8.325 7.36842 9 7.36842C9.675 7.36842 10.125 7.78947 10.125 8.42105V11.5789C10.125 12.2105 9.675 12.6316 9 12.6316Z"/>
</symbol><symbol viewBox="0 0 12 10" id="twitter" xmlns="http://www.w3.org/2000/svg">
<path d="M3.77376 10C8.30208 10 10.7789 6.15237 10.7789 2.81572C10.7789 2.70644 10.7789 2.59764 10.7717 2.48934C11.2535 2.13191 11.6695 1.68933 12 1.18235C11.5507 1.38655 11.074 1.52046 10.5859 1.57962C11.0999 1.26406 11.4845 0.76774 11.6683 0.183028C11.185 0.477141 10.6563 0.684418 10.105 0.795912C9.73376 0.391106 9.24281 0.123053 8.7081 0.0332352C8.17338 -0.0565831 7.62471 0.0368402 7.14698 0.299048C6.66926 0.561256 6.28911 0.977631 6.06537 1.48374C5.84163 1.98985 5.78677 2.55747 5.90928 3.09878C4.93044 3.04845 3.97286 2.78758 3.09871 2.33309C2.22455 1.8786 1.45336 1.24066 0.8352 0.460672C0.520364 1.01653 0.423936 1.67456 0.56555 2.30077C0.707163 2.92698 1.07617 3.4743 1.59744 3.83129C1.20564 3.81938 0.822374 3.71098 0.48 3.51525C0.48 3.52558 0.48 3.53641 0.48 3.54724C0.480156 4.13021 0.676926 4.69517 1.03694 5.1463C1.39695 5.59744 1.89803 5.90697 2.4552 6.02241C2.09274 6.12379 1.71244 6.13861 1.34352 6.06573C1.50084 6.56744 1.80714 7.00618 2.21955 7.32058C2.63197 7.63498 3.12989 7.80932 3.64368 7.81922C2.77187 8.52191 1.69491 8.90337 0.58608 8.90222C0.390194 8.90184 0.194498 8.88967 0 8.8658C1.12591 9.60681 2.43596 9.99986 3.77376 9.99803"/>
</symbol><symbol viewBox="0 0 15 8" id="vk" xmlns="http://www.w3.org/2000/svg">
<path fill-rule="evenodd" clip-rule="evenodd" d="M7.28633 7.98876H8.15061C8.15061 7.98876 8.47471 7.98876 8.58275 7.78652C8.69078 7.68539 8.69078 7.38202 8.69078 7.38202C8.69078 7.38202 8.69078 6.26966 9.23096 6.06742C9.77113 5.86517 10.5274 7.17978 11.2836 7.68539C11.8238 8.08989 12.2559 7.98876 12.2559 7.98876H14.3086C14.3086 7.98876 15.3889 7.88764 14.8488 7.17978C14.8488 7.07865 14.5246 6.57303 13.3363 5.5618C12.0399 4.44944 12.2559 4.65169 13.7684 2.73034C14.7407 1.61798 15.0648 0.910112 14.9568 0.606742C14.8488 0.303371 14.2005 0.404494 14.2005 0.404494H11.9318C11.9318 0.404494 11.7158 0.404494 11.6077 0.404494C11.4997 0.505618 11.3916 0.606742 11.3916 0.606742C11.3916 0.606742 11.0675 1.51685 10.5274 2.22472C9.66309 3.94382 9.23095 3.94382 9.01488 3.8427C8.69078 3.64045 8.79882 2.93258 8.79882 2.42697C8.79882 0.910113 9.01489 0.202247 8.25864 0.101124C8.04257 0 7.82651 0 7.1783 0C6.42206 0 5.66581 0 5.34171 0.202247C5.01761 0.303371 4.90957 0.606742 5.01761 0.606742C5.12564 0.606742 5.55778 0.707865 5.66581 0.910112C5.88188 1.21348 5.88188 1.82022 5.88188 1.82022C5.88188 1.82022 5.98992 3.64045 5.55778 3.8427C5.23368 4.04494 4.80154 3.74157 3.93726 2.32584C3.50512 1.51685 3.18102 0.707865 3.18102 0.707865C3.18102 0.707865 3.07298 0.606742 2.96495 0.505618C2.74888 0.404494 2.64085 0.303371 2.64085 0.303371H0.480154C0.480154 0.303371 0.15605 0.303371 0.0480154 0.404494C-0.0600192 0.505618 0.0480154 0.808989 0.0480154 0.808989C0.0480154 0.808989 1.77657 4.44944 3.61316 6.37079C5.34171 8.08989 7.28633 7.98876 7.28633 7.98876Z"/>
</symbol><symbol viewBox="0 0 22 16" id="wireless" xmlns="http://www.w3.org/2000/svg">
<path d="M18.903 0.28529C18.7294 0.104679 18.4918 0.00218733 18.2423 0C18.2399 0 18.2377 0 18.2355 0C17.9889 0 17.7521 0.0987426 17.5777 0.274979L17.4841 0.369346C17.1259 0.731193 17.1213 1.31583 17.4739 1.68362C19.1081 3.38692 20.0085 5.63018 20.0085 8C20.0085 10.3701 19.1084 12.6134 17.4739 14.3164C17.1203 14.6845 17.1256 15.2707 17.4854 15.6322L17.5792 15.7266C17.7534 15.9019 17.9895 16 18.2355 16C18.2383 16 18.2411 16 18.2436 16C18.4924 15.9978 18.7297 15.895 18.903 15.715C20.9 13.6361 22 10.8963 22 8C22 5.10398 20.9 2.36419 18.903 0.28529Z"/>
<path d="M1.99177 8C1.99177 5.6305 2.89192 3.38724 4.52642 1.68362C4.87966 1.31583 4.8747 0.730256 4.51527 0.368409L4.42138 0.274041C4.24693 0.0984301 4.01082 0 3.76448 0C3.762 0 3.75921 0 3.75673 0C3.50761 0.00218733 3.26994 0.104679 3.09673 0.28529C1.09969 2.36419 0 5.10398 0 8C0 10.8963 1.09969 13.6361 3.09704 15.7147C3.27056 15.8953 3.50823 15.9978 3.75735 16C3.75983 16 3.76231 16 3.76479 16C4.01113 16 4.24786 15.9016 4.422 15.7253L4.51589 15.6307C4.8747 15.2688 4.87966 14.6839 4.52673 14.3161C2.89192 12.6131 1.99177 10.3698 1.99177 8Z"/>
<path d="M15.8372 3.88282C15.6634 3.7019 15.4251 3.59941 15.1754 3.59753C15.1735 3.59753 15.1713 3.59753 15.1695 3.59753C14.9219 3.59753 14.6845 3.69721 14.5101 3.87438L14.4645 3.92063C14.1079 4.28279 14.1039 4.86618 14.4559 5.23334C15.1719 5.97922 15.5661 6.96196 15.5661 8C15.5661 9.03836 15.1719 10.0211 14.4562 10.7667C14.1039 11.1338 14.1076 11.7172 14.4645 12.0794L14.5101 12.1256C14.6842 12.3028 14.9219 12.4025 15.1695 12.4025C15.1713 12.4025 15.1735 12.4025 15.1754 12.4025C15.4251 12.4009 15.6634 12.2981 15.8372 12.1175C16.9031 11.0079 17.4903 9.54582 17.4903 8C17.4903 6.45449 16.9034 4.99242 15.8372 3.88282Z"/>
<path d="M7.5333 3.91876L7.48744 3.87251C7.3133 3.69659 7.07656 3.59784 6.83022 3.59784C6.82775 3.59784 6.82527 3.59784 6.82279 3.59784C6.57366 3.59972 6.336 3.70252 6.16248 3.88313C5.09687 4.99242 4.51 6.4545 4.51 8.00031C4.51 9.54613 5.09687 11.0085 6.16279 12.1178C6.336 12.2981 6.57397 12.4006 6.8231 12.4028C6.82558 12.4028 6.82806 12.4028 6.83022 12.4028C7.07656 12.4028 7.3133 12.3044 7.48744 12.1281L7.5333 12.0819C7.89211 11.72 7.89676 11.1351 7.54414 10.767C6.82837 10.0211 6.43392 9.03898 6.43392 8.00031C6.43392 6.96227 6.82806 5.97953 7.54414 5.23365C7.89707 4.86556 7.89242 4.28029 7.5333 3.91876Z"/>
<path d="M11 9.99609C12.1123 9.99609 13.0141 9.08674 13.0141 7.965C13.0141 6.84326 12.1123 5.93391 11 5.93391C9.88765 5.93391 8.98592 6.84326 8.98592 7.965C8.98592 9.08674 9.88765 9.99609 11 9.99609Z"/>
</symbol></svg>