<svg width="12" height="12" viewBox="0 0 12 12" fill="none" xmlns="http://www.w3.org/2000/svg">
<path d="M9.15818 2.58646C8.31173 1.88585 7.19015 1.5 6 1.5C4.80985 1.5 3.68827 1.88585 2.84182 2.58649C1.97654 3.30274 1.5 4.26085 1.5 5.28435C1.5 6.30787 1.97654 7.26603 2.84182 7.98223C3.68827 8.6829 4.80985 9.06877 6 9.06877C6.12117 9.06877 6.24326 9.06464 6.36476 9.05642L7.13123 10.3501C7.18507 10.4409 7.28045 10.4974 7.38419 10.5C7.38655 10.5 7.38884 10.5 7.39125 10.5C7.49232 10.5 7.58709 10.4485 7.64365 10.3623L9.26643 7.88929C10.0625 7.18392 10.5 6.26166 10.5 5.2844C10.5 4.26083 10.0235 3.30271 9.15818 2.58646ZM8.81964 7.46106L7.40431 9.61058L6.78713 8.56889C6.73169 8.47527 6.63271 8.41905 6.52718 8.41905C6.51699 8.41905 6.50675 8.41957 6.49648 8.42059C6.33224 8.43762 6.16519 8.44621 5.99995 8.44621C3.85396 8.44621 2.10809 7.02775 2.10809 5.28427C2.10809 3.54082 3.85396 2.12238 5.99995 2.12238C8.14595 2.12238 9.89181 3.54082 9.89181 5.28427C9.89186 6.09693 9.51107 6.86995 8.81964 7.46106Z" fill="#96A2B7" stroke="#96A2B7" stroke-width="1.2"/>
</svg>
