<svg width="20" height="20" viewBox="0 0 20 20" fill="none" xmlns="http://www.w3.org/2000/svg">
<path d="M9.98434 4C10.5761 4 10.9844 4.47971 10.9844 5.07142V9L13.913 8.99547C14.5047 8.99547 14.9844 9.40829 14.9844 10C14.9844 10.5917 14.5047 10.9955 13.913 10.9955L9.98438 11C9.39266 11 9 10.5962 9 10.0045V5.07142C9 4.47971 9.39263 4 9.98434 4Z" fill="#C1CADA"/>
<path d="M10 0C4.48598 0 0 4.48598 0 10C0 15.514 4.48598 20 9.99996 20C15.5139 20 19.9999 15.514 19.9999 10C20 4.48598 15.514 0 10 0ZM10 18C5.66762 18 2 14.3324 2 10C1.99993 5.66752 5.66755 2 10 2C14.3325 2 18 5.67205 18 10.0045C18 14.3369 14.3324 18 10 18Z" fill="#C1CADA"/>
</svg>
