<svg width="8" height="8" viewBox="0 0 8 8" fill="none" xmlns="http://www.w3.org/2000/svg">
<path d="M0.536605 7.22488C0.610725 7.39148 0.78463 7.5 0.977278 7.5H7.02256C7.28619 7.5 7.49987 7.30002 7.49987 7.05309V5.71278C7.49987 5.46597 7.28626 5.26593 7.02256 5.26593C6.75886 5.26593 6.54519 5.46591 6.54519 5.71278V6.6063H2.12415L4.31021 4.54617C4.48523 4.38116 4.49594 4.11796 4.33457 3.94116L2.01215 1.39364H6.54532V1.6915C6.54532 1.93831 6.75893 2.13829 7.02269 2.13829C7.28646 2.13829 7.5 1.93831 7.5 1.6915V0.94685C7.5 0.70004 7.28639 0.5 7.02269 0.5H0.977278C0.791096 0.5 0.621892 0.601426 0.543919 0.759771C0.465946 0.918115 0.493504 1.1044 0.614252 1.23694L3.32333 4.20845L0.638741 6.73829C0.502842 6.86631 0.462615 7.05822 0.536605 7.22488Z" fill="#96A2B7" stroke="#96A2B7"/>
</svg>
