<svg width="20" height="22" viewBox="0 0 20 22" fill="none" xmlns="http://www.w3.org/2000/svg">
<path d="M18.7428 15.7263C17.5177 14.629 15.9168 14.009 14.2186 13.9707V12.1415C15.0464 11.2258 15.4987 10.0776 15.4987 8.87338V6.09537C15.4987 3.28577 13.032 1 10 1C6.96799 1 4.50127 3.28577 4.50127 6.09537V8.87338C4.50127 10.0776 4.95361 11.2258 5.78139 12.1415V13.9707C4.08318 14.009 2.48229 14.629 1.25717 15.7263C0.95879 15.9934 0.914659 16.4222 1.1531 16.737C3.17587 19.4064 6.48321 21 10 21C13.517 21 16.8241 19.4064 18.8469 16.7368C19.0853 16.4222 19.0412 15.9934 18.7428 15.7263ZM6.18746 6.09537C6.18746 4.14728 7.89786 2.5625 10 2.5625C12.1023 2.5625 13.8125 4.14728 13.8125 6.09537V8.87338C13.8125 9.78448 13.4394 10.6495 12.7618 11.3088C12.0346 12.0165 11.0539 12.4062 10 12.4062C8.94613 12.4062 7.96537 12.0165 7.2382 11.309C6.56076 10.6495 6.18746 9.78448 6.18746 8.87338V6.09537ZM10 19.4375C7.29007 19.4375 4.72753 18.3161 3.00264 16.406C3.8571 15.8381 4.88017 15.5312 5.94952 15.5312H6.62449C7.09017 15.5312 7.46759 15.1815 7.46759 14.75V13.4002C8.23889 13.7721 9.10108 13.9688 10 13.9688C10.8991 13.9688 11.7611 13.7721 12.5324 13.4002V14.75C12.5324 15.1815 12.9098 15.5312 13.3755 15.5312H14.0506C15.1198 15.5312 16.1429 15.8381 16.9974 16.406C15.2726 18.3161 12.7099 19.4375 10 19.4375Z" fill="#C1CADA" stroke="#C1CADA" stroke-width="0.2"/>
</svg>
