<svg width="20" height="20" viewBox="0 0 20 20" fill="none" xmlns="http://www.w3.org/2000/svg">
<path d="M17.9008 7.18046L14.6713 7.11275C14.7405 6.7065 14.7866 6.23253 14.8097 5.69086C14.902 3.72731 14.4637 2.23771 13.5179 1.24465C12.4337 0.116167 10.7958 -0.244947 8.65052 0.161306C8.16609 0.251585 7.84314 0.702977 7.91234 1.17694C8.65052 5.91656 6.85121 6.9999 6.48212 7.15789C6.0669 7.20303 5.67474 7.36101 5.35179 7.60928C5.07497 7.45129 4.72895 7.36101 4.35986 7.36101H2.09919C0.94579 7.36101 0 8.28637 0 9.41485V17.9462C0 19.0746 0.94579 20 2.09919 20H4.35986C4.79815 20 5.21338 19.8646 5.53633 19.6389C5.85928 19.8646 6.25144 20 6.68973 20H16.7243C17.8547 20 18.8005 19.0972 18.8235 17.9913L20 9.36971C20 9.32457 20 9.27943 20 9.25686C19.9769 8.10581 19.0542 7.18046 17.9008 7.18046ZM4.61361 17.9462C4.61361 18.0816 4.49827 18.1944 4.35986 18.1944H2.09919C1.96078 18.1944 1.84544 18.0816 1.84544 17.9462V9.41485C1.84544 9.27943 1.96078 9.16658 2.09919 9.16658H4.35986C4.49827 9.16658 4.61361 9.27943 4.61361 9.41485V17.9462ZM16.9781 17.7882C16.9781 17.8333 16.9781 17.8785 16.9781 17.901C16.9781 18.059 16.8627 18.1719 16.7243 18.1719H6.66667C6.55133 18.1719 6.45905 18.0139 6.45905 17.8559V9.23429C6.45905 9.09887 6.55133 8.98603 6.68973 8.98603C6.75894 8.98603 6.85121 8.98603 6.92042 8.96346C7.08189 8.91832 10.519 7.99296 9.87313 1.83146C10.9112 1.76375 11.6955 1.96688 12.1799 2.48598C13.4025 3.77245 12.9412 6.72906 12.6644 7.7447C12.5952 8.01553 12.6413 8.30894 12.8258 8.51206C12.9873 8.73776 13.2641 8.87318 13.5409 8.87318L17.8777 8.96346C17.9931 8.96346 18.1084 9.0763 18.1315 9.18915L16.9781 17.7882Z" fill="white"/>
</svg>
