<svg width="8" height="10" viewBox="0 0 8 10" fill="none" xmlns="http://www.w3.org/2000/svg">
<path d="M6 1C6 0.447716 6.44772 0 7 0C7.55228 0 8 0.447715 8 1V9C8 9.55228 7.55228 10 7 10C6.44772 10 6 9.55228 6 9V1Z" fill="#3F4D64"/>
<path d="M3 7C3 6.44772 3.44772 6 4 6C4.55228 6 5 6.44772 5 7V9C5 9.55228 4.55228 10 4 10C3.44772 10 3 9.55228 3 9V7Z" fill="#3F4D64"/>
<path d="M0 3C0 2.44772 0.447715 2 1 2C1.55228 2 2 2.44772 2 3V9C2 9.55228 1.55228 10 1 10C0.447715 10 0 9.55228 0 9V3Z" fill="#3F4D64"/>
</svg>
