<svg width="17" height="17" viewBox="0 0 17 17" fill="none" xmlns="http://www.w3.org/2000/svg">
<path d="M16.1599 15.2564L13.0315 12.1703C14.198 10.88 14.9227 9.17128 14.9227 7.30564C14.9227 3.27795 11.5999 0 7.51702 0C3.43417 0 0.111328 3.27795 0.111328 7.30564C0.111328 11.3333 3.43417 14.6113 7.51702 14.6113C8.96634 14.6113 10.3096 14.1928 11.4408 13.4954L14.6929 16.7036C14.8874 16.8954 15.1525 17 15.4176 17C15.6827 17 15.9478 16.8954 16.1423 16.7036C16.5665 16.3026 16.5665 15.6574 16.1599 15.2564ZM2.17927 7.30564C2.17927 4.41128 4.56535 2.04 7.51702 2.04C10.4687 2.04 12.8371 4.41128 12.8371 7.30564C12.8371 10.2 10.451 12.5713 7.51702 12.5713C4.58302 12.5713 2.17927 10.2174 2.17927 7.30564Z" fill="#3F4D64"/>
</svg>
