<svg width="10" height="9" viewBox="0 0 10 9" fill="none" xmlns="http://www.w3.org/2000/svg">
<path d="M9.00003 1.5C9.00003 2.32843 8.32845 3 7.50003 3C6.6716 3 6.00003 2.32843 6.00003 1.5C6.00003 0.671573 6.6716 0 7.50003 0C8.32845 0 9.00003 0.671573 9.00003 1.5Z" fill="#96A2B7"/>
<path d="M0.36432 5.22807C0.790644 4.87698 1.42087 4.93797 1.77196 5.36429C2.62858 6.40447 3.77631 7 5.00003 7C6.22374 7 7.37148 6.40447 8.2281 5.36429C8.57919 4.93797 9.20941 4.87698 9.63574 5.22807C10.0621 5.57916 10.123 6.20938 9.77196 6.63571C8.59575 8.06395 6.91022 9 5.00003 9C3.08984 9 1.4043 8.06395 0.228099 6.63571C-0.122993 6.20938 -0.062005 5.57916 0.36432 5.22807Z" fill="#96A2B7"/>
<path d="M2.50003 3C3.32846 3 4.00003 2.32843 4.00003 1.5C4.00003 0.671573 3.32846 0 2.50003 0C1.6716 0 1.00003 0.671573 1.00003 1.5C1.00003 2.32843 1.6716 3 2.50003 3Z" fill="#96A2B7"/>
</svg>
