<svg width="48" height="48" viewBox="0 0 48 48" fill="none" xmlns="http://www.w3.org/2000/svg">
<path d="M45.626 21.2292L42.72 20.5735L41.4502 15.8875L40.5321 15.8843C39.0191 15.879 37.6864 14.8557 37.2903 13.3948C36.8942 11.934 37.5277 10.3757 38.8303 9.60555L39.6209 9.13785L37.7525 2.24838C37.3135 0.62758 35.6392 -0.332718 34.0209 0.106382L2.24484 8.74589C1.46266 8.95829 0.809531 9.46519 0.404959 10.1723C0.000387595 10.8794 -0.105383 11.7004 0.107216 12.4833L1.97459 19.3738L2.89268 19.377C4.4052 19.3823 5.73843 20.4056 6.13454 21.8664C6.53065 23.3273 5.89709 24.8856 4.59452 25.6562L3.80442 26.124L5.6718 33.0139C5.73685 33.2539 5.83786 33.4763 5.95579 33.6888L5.2027 37.0379C4.83462 38.6762 5.86536 40.3091 7.50109 40.6783L39.6225 47.9253C39.8462 47.9756 40.0699 48 40.2904 48C41.6808 48 42.9389 47.0371 43.2573 45.6234L44.8238 38.6581L44.0136 38.2254C42.6793 37.5125 41.9785 35.9833 42.3107 34.5066C42.6428 33.0304 43.9305 31.9493 45.4415 31.8783L46.3585 31.8349L47.925 24.8702C48.1032 24.0784 47.9614 23.2627 47.5267 22.5741C47.0915 21.885 46.4167 21.4072 45.626 21.2292ZM3.83932 17.0443L2.43152 11.8514C2.37282 11.6337 2.4458 11.4578 2.49498 11.372C2.54417 11.2862 2.6584 11.1337 2.87576 11.0749L9.09135 9.38521L9.82381 12.0887C9.94016 12.5188 10.3294 12.8011 10.7535 12.8011C10.8371 12.8011 10.9217 12.7899 11.0063 12.7672C11.5198 12.6273 11.8234 12.0971 11.6838 11.5828L10.9513 8.87937L34.6524 2.43483C34.9839 2.3469 35.3377 2.54871 35.4277 2.87975L36.8355 8.07267C35.1315 9.50279 34.3694 11.8291 34.9649 14.0273C35.5609 16.2254 37.3929 17.8462 39.585 18.217L40.9928 23.4099C41.0821 23.7409 40.8791 24.0964 40.5485 24.1864L16.847 30.6309L16.3176 28.677C16.1785 28.1627 15.6502 27.8581 15.1351 27.9985C14.6216 28.1383 14.318 28.6685 14.4576 29.1828L14.987 31.1363L8.7714 32.8264C8.55563 32.8852 8.37899 32.8121 8.29332 32.7629C8.20764 32.7141 8.05533 32.5992 7.99663 32.3815L6.58882 27.1886C8.29279 25.7585 9.05486 23.4321 8.45937 21.2335C7.86283 19.0359 6.03089 17.4151 3.83932 17.0443ZM32.7284 30.3709L34.2996 32.6712L31.923 34.1215L30.2243 36.3292L28.1126 34.5135L25.4911 33.577L26.5625 31.0049L26.5773 30.4853L32.3815 28.9074L32.7284 30.3709ZM45.5742 24.34L44.3938 29.5896C42.2202 30.0557 40.4602 31.7549 39.9604 33.9769C39.4612 36.1989 40.3238 38.4902 42.0875 39.8441L40.9071 45.0937C40.8315 45.4279 40.4861 45.6472 40.1519 45.572L16.1933 40.1661L16.6375 38.191C16.7544 37.6714 16.4281 37.1544 15.9093 37.0373C15.3905 36.9213 14.8749 37.2471 14.7575 37.7667L14.3132 39.7413L8.03048 38.3239C7.69624 38.2487 7.47783 37.9023 7.55292 37.5676L8.08336 35.21C8.2563 35.2407 8.43029 35.2619 8.60587 35.2619C8.87188 35.2619 9.14001 35.2264 9.40338 35.1549L15.7321 33.434L15.6047 34.0002C15.4878 34.5203 15.8141 35.0368 16.3329 35.1538C16.4043 35.1697 16.4757 35.1777 16.5455 35.1777C16.9861 35.1777 17.3838 34.8731 17.4848 34.4245L17.8359 32.8619L24.4503 31.0637L22.9309 34.7121L27.1289 36.2116L30.5109 39.119L33.2319 35.5834L37.038 33.2602L34.5217 29.5753L34.243 28.4005L41.1794 26.5149C42.6576 26.1128 43.582 24.679 43.3975 23.1991L45.0977 23.5826C45.3172 23.6318 45.4383 23.7796 45.4906 23.8628C45.5425 23.947 45.6239 24.1202 45.5742 24.34Z" fill="#9F9A8A"/>
<path d="M13.3232 21.314C12.8097 21.4538 12.5062 21.984 12.6458 22.4983L13.4475 25.4566C13.5639 25.8867 13.9531 26.169 14.3772 26.169C14.4608 26.169 14.5454 26.1578 14.6305 26.1351C15.1441 25.9952 15.4476 25.465 15.308 24.9507L14.5063 21.9925C14.3667 21.4782 13.8399 21.1757 13.3232 21.314Z" fill="#9F9A8A"/>
<path d="M11.6357 18.7726C11.752 19.2027 12.1412 19.485 12.5654 19.485C12.6489 19.485 12.7336 19.4739 12.8182 19.4511C13.3317 19.3113 13.6352 18.7811 13.4956 18.2668L12.6939 15.3085C12.5548 14.7942 12.0275 14.4907 11.5114 14.63C10.9979 14.7699 10.6943 15.3001 10.8339 15.8144L11.6357 18.7726Z" fill="#9F9A8A"/>
<path d="M20.2559 22.6546L24.6666 22.0137L29.0132 22.9994L29.7679 18.5999L32.0478 14.764L28.1031 12.6856L25.1648 9.32906L21.9721 12.4441L17.8766 14.2052L19.8482 18.209L20.2559 22.6546ZM23.0615 14.0771L25.0548 12.1321L26.8893 14.228L29.3522 15.5252L27.9291 17.9204L27.4579 20.6673L24.7438 20.0518L21.9895 20.4522L21.7351 17.6767L20.504 15.1767L23.0615 14.0771Z" fill="#9F9A8A"/>
</svg>
