<svg width="18" height="20" viewBox="0 0 18 20" fill="none" xmlns="http://www.w3.org/2000/svg">
<path d="M9 20C4.05 20 0 16.2105 0 11.5789C0 6.94737 4.05 3.15789 9 3.15789C13.95 3.15789 18 6.94737 18 11.5789C18 16.2105 13.95 20 9 20ZM9 5.26316C5.2875 5.26316 2.25 8.10526 2.25 11.5789C2.25 15.0526 5.2875 17.8947 9 17.8947C12.7125 17.8947 15.75 15.0526 15.75 11.5789C15.75 8.10526 12.7125 5.26316 9 5.26316Z" fill="#C1CADA"/>
<path d="M11.25 2.10526H6.75C6.075 2.10526 5.625 1.68421 5.625 1.05263C5.625 0.421053 6.075 0 6.75 0H11.25C11.925 0 12.375 0.421053 12.375 1.05263C12.375 1.68421 11.925 2.10526 11.25 2.10526Z" fill="#C1CADA"/>
<path d="M9 12.6316C8.325 12.6316 7.875 12.2105 7.875 11.5789V8.42105C7.875 7.78947 8.325 7.36842 9 7.36842C9.675 7.36842 10.125 7.78947 10.125 8.42105V11.5789C10.125 12.2105 9.675 12.6316 9 12.6316Z" fill="#C1CADA"/>
</svg>
