<svg width="15" height="8" viewBox="0 0 15 8" fill="none" xmlns="http://www.w3.org/2000/svg">
<path fill-rule="evenodd" clip-rule="evenodd" d="M7.28633 7.98876H8.15061C8.15061 7.98876 8.47471 7.98876 8.58275 7.78652C8.69078 7.68539 8.69078 7.38202 8.69078 7.38202C8.69078 7.38202 8.69078 6.26966 9.23096 6.06742C9.77113 5.86517 10.5274 7.17978 11.2836 7.68539C11.8238 8.08989 12.2559 7.98876 12.2559 7.98876H14.3086C14.3086 7.98876 15.3889 7.88764 14.8488 7.17978C14.8488 7.07865 14.5246 6.57303 13.3363 5.5618C12.0399 4.44944 12.2559 4.65169 13.7684 2.73034C14.7407 1.61798 15.0648 0.910112 14.9568 0.606742C14.8488 0.303371 14.2005 0.404494 14.2005 0.404494H11.9318C11.9318 0.404494 11.7158 0.404494 11.6077 0.404494C11.4997 0.505618 11.3916 0.606742 11.3916 0.606742C11.3916 0.606742 11.0675 1.51685 10.5274 2.22472C9.66309 3.94382 9.23095 3.94382 9.01488 3.8427C8.69078 3.64045 8.79882 2.93258 8.79882 2.42697C8.79882 0.910113 9.01489 0.202247 8.25864 0.101124C8.04257 0 7.82651 0 7.1783 0C6.42206 0 5.66581 0 5.34171 0.202247C5.01761 0.303371 4.90957 0.606742 5.01761 0.606742C5.12564 0.606742 5.55778 0.707865 5.66581 0.910112C5.88188 1.21348 5.88188 1.82022 5.88188 1.82022C5.88188 1.82022 5.98992 3.64045 5.55778 3.8427C5.23368 4.04494 4.80154 3.74157 3.93726 2.32584C3.50512 1.51685 3.18102 0.707865 3.18102 0.707865C3.18102 0.707865 3.07298 0.606742 2.96495 0.505618C2.74888 0.404494 2.64085 0.303371 2.64085 0.303371H0.480154C0.480154 0.303371 0.15605 0.303371 0.0480154 0.404494C-0.0600192 0.505618 0.0480154 0.808989 0.0480154 0.808989C0.0480154 0.808989 1.77657 4.44944 3.61316 6.37079C5.34171 8.08989 7.28633 7.98876 7.28633 7.98876Z" fill="#C4C4C4"/>
</svg>
