<svg width="22" height="16" viewBox="0 0 22 16" fill="none" xmlns="http://www.w3.org/2000/svg">
<path d="M18.903 0.28529C18.7294 0.104679 18.4918 0.00218733 18.2423 0C18.2399 0 18.2377 0 18.2355 0C17.9889 0 17.7521 0.0987426 17.5777 0.274979L17.4841 0.369346C17.1259 0.731193 17.1213 1.31583 17.4739 1.68362C19.1081 3.38692 20.0085 5.63018 20.0085 8C20.0085 10.3701 19.1084 12.6134 17.4739 14.3164C17.1203 14.6845 17.1256 15.2707 17.4854 15.6322L17.5792 15.7266C17.7534 15.9019 17.9895 16 18.2355 16C18.2383 16 18.2411 16 18.2436 16C18.4924 15.9978 18.7297 15.895 18.903 15.715C20.9 13.6361 22 10.8963 22 8C22 5.10398 20.9 2.36419 18.903 0.28529Z" fill="#5EB5FE"/>
<path d="M1.99177 8C1.99177 5.6305 2.89192 3.38724 4.52642 1.68362C4.87966 1.31583 4.8747 0.730256 4.51527 0.368409L4.42138 0.274041C4.24693 0.0984301 4.01082 0 3.76448 0C3.762 0 3.75921 0 3.75673 0C3.50761 0.00218733 3.26994 0.104679 3.09673 0.28529C1.09969 2.36419 0 5.10398 0 8C0 10.8963 1.09969 13.6361 3.09704 15.7147C3.27056 15.8953 3.50823 15.9978 3.75735 16C3.75983 16 3.76231 16 3.76479 16C4.01113 16 4.24786 15.9016 4.422 15.7253L4.51589 15.6307C4.8747 15.2688 4.87966 14.6839 4.52673 14.3161C2.89192 12.6131 1.99177 10.3698 1.99177 8Z" fill="#5EB5FE"/>
<path d="M15.8372 3.88282C15.6634 3.7019 15.4251 3.59941 15.1754 3.59753C15.1735 3.59753 15.1713 3.59753 15.1695 3.59753C14.9219 3.59753 14.6845 3.69721 14.5101 3.87438L14.4645 3.92063C14.1079 4.28279 14.1039 4.86618 14.4559 5.23334C15.1719 5.97922 15.5661 6.96196 15.5661 8C15.5661 9.03836 15.1719 10.0211 14.4562 10.7667C14.1039 11.1338 14.1076 11.7172 14.4645 12.0794L14.5101 12.1256C14.6842 12.3028 14.9219 12.4025 15.1695 12.4025C15.1713 12.4025 15.1735 12.4025 15.1754 12.4025C15.4251 12.4009 15.6634 12.2981 15.8372 12.1175C16.9031 11.0079 17.4903 9.54582 17.4903 8C17.4903 6.45449 16.9034 4.99242 15.8372 3.88282Z" fill="#5EB5FE"/>
<path d="M7.5333 3.91876L7.48744 3.87251C7.3133 3.69659 7.07656 3.59784 6.83022 3.59784C6.82775 3.59784 6.82527 3.59784 6.82279 3.59784C6.57366 3.59972 6.336 3.70252 6.16248 3.88313C5.09687 4.99242 4.51 6.4545 4.51 8.00031C4.51 9.54613 5.09687 11.0085 6.16279 12.1178C6.336 12.2981 6.57397 12.4006 6.8231 12.4028C6.82558 12.4028 6.82806 12.4028 6.83022 12.4028C7.07656 12.4028 7.3133 12.3044 7.48744 12.1281L7.5333 12.0819C7.89211 11.72 7.89676 11.1351 7.54414 10.767C6.82837 10.0211 6.43392 9.03898 6.43392 8.00031C6.43392 6.96227 6.82806 5.97953 7.54414 5.23365C7.89707 4.86556 7.89242 4.28029 7.5333 3.91876Z" fill="#5EB5FE"/>
<path d="M11 9.99609C12.1123 9.99609 13.0141 9.08674 13.0141 7.965C13.0141 6.84326 12.1123 5.93391 11 5.93391C9.88765 5.93391 8.98592 6.84326 8.98592 7.965C8.98592 9.08674 9.88765 9.99609 11 9.99609Z" fill="#5EB5FE"/>
</svg>
